<?xml version="1.0" standalone="no"?><!DOCTYPE svg PUBLIC "-//W3C//DTD SVG 1.1//EN" "http://www.w3.org/Graphics/SVG/1.1/DTD/svg11.dtd"><svg t="1740389619599" class="icon" viewBox="0 0 1024 1024" version="1.1" xmlns="http://www.w3.org/2000/svg" p-id="3840" xmlns:xlink="http://www.w3.org/1999/xlink" width="200" height="200"><path d="M651.0848 753.0752c-10.9312 2.7264-21.9392 5.1456-33.0112 7.2448a471.424 471.424 0 0 1-181.632-0.6912c-10.5088-2.0992-25.3824-5.7856-44.544-11.008L329.1008 832C174.1184 826.9184 115.2 720.8192 115.2 720.8192c0-235.52 100.992-426.4448 100.992-426.4448C317.1584 215.4496 413.2352 217.6 413.2352 217.6l27.4816 36.5824c2.5344-0.3584 5.0816-0.6016 7.6288-0.6912a569.2672 569.2672 0 0 1 157.7856 0.6912L636.288 217.6s96.1408-2.1504 197.056 76.8512c0 0 101.056 190.848 101.056 426.368 0 0-59.6608 106.0224-214.656 111.1808l-68.6592-78.9888v0.064zM389.376 503.7056c-40.9728 0-73.3696 31.3344-73.3696 69.6576 0 38.3104 33.0752 69.6576 73.3696 69.6576 40.9216 0 73.3056-31.36 73.3056-69.6576 0.6784-38.3232-32.32-69.6576-73.3056-69.6576z m262.4 0c-40.9216 0-73.3184 31.3344-73.3184 69.6576 0 38.3104 33.0752 69.6576 73.3056 69.6576 40.9856 0 73.3696-31.36 73.3696-69.6576 0-38.3232-32.384-69.6576-73.3696-69.6576z" fill="#ffffff" p-id="3841"></path></svg>