<?xml version="1.0" standalone="no"?><!DOCTYPE svg PUBLIC "-//W3C//DTD SVG 1.1//EN" "http://www.w3.org/Graphics/SVG/1.1/DTD/svg11.dtd"><svg t="1740454490534" class="icon" viewBox="0 0 1024 1024" version="1.1" xmlns="http://www.w3.org/2000/svg" p-id="10710" xmlns:xlink="http://www.w3.org/1999/xlink" width="200" height="200"><path d="M919.10213049 49.14636518c54.59001465 0 98.14587739 44.13660756 98.72662223 98.14587741v597.58643691c0 54.00926981-44.13660756 98.14587739-98.14587738 98.1458774h-254.36623847l-126.60237439 126.60237438a36.87729713 36.87729713 0 0 1-26.71426248 11.03415191 36.87729713 36.87729713 0 0 1-26.71426248-11.03415191L358.68336313 843.0245569H104.31712466a98.36365671 98.36365671 0 0 1-98.14587738-98.1458774V147.29224259c0-54.00926981 44.13660756-98.14587739 98.14587738-98.14587741zM646.73280211 337.776549a35.71580745 35.71580745 0 0 0-36.00617988 35.42543503v251.46251427c0 19.74532445 16.26085543 36.00617988 36.00617988 36.00617989a36.15136609 36.15136609 0 0 0 36.00617985-36.00617989V443.47210927c5.22670352-4.64595868 10.45340706-8.71117255 16.26085545-13.35713124 6.3881932-4.64595868 12.77638642-9.29191739 19.16457962-12.7763864 6.3881932-3.48446902 12.19564158-6.3881932 18.58383475-8.71117255a56.47743538 56.47743538 0 0 1 15.68011058-2.9037242 45.00772484 45.00772484 0 0 1 17.4223451 2.9037242 19.52754514 19.52754514 0 0 1 8.71117256 9.29191738c2.32297937 5.22670352 4.06521387 11.61489672 4.6459587 20.32606928 0.58074483 9.29191739 1.16148968 20.32606928 1.16148969 33.68320053v152.73589203c0 19.74532445 16.26085543 36.00617988 36.00617987 36.00617989a36.15136609 36.15136609 0 0 0 36.00617986-36.00617989V445.21434379c0-16.26085543-1.16148968-30.77947635-4.06521386-43.55586276a79.70722883 79.70722883 0 0 0-14.51862091-34.26394535 64.60786309 64.60786309 0 0 0-27.87575216-21.48755895 107.29260857 107.29260857 0 0 0-41.23288342-6.96893805c-9.29191739 0-18.58383477 1.16148968-27.87575213 4.06521384s-18.00308994 6.3881932-26.7142625 10.45340707c-8.71117255 4.64595868-16.26085543 9.87266223-24.39128313 15.68011059l-6.96893807 5.22670353v-1.16148968a35.71580745 35.71580745 0 0 0-36.00617985-35.42543503zM424.8882745 338.93803868a187.29020982 187.29020982 0 0 0-42.9751179 4.64595869c-12.19564158 2.90372418-23.22979348 6.96893804-32.52171087 11.61489674s-17.4223451 10.45340706-23.8105383 16.26085542a109.76077412 109.76077412 0 0 0-13.35713124 16.26085542 37.02248334 37.02248334 0 0 0-8.71117254 23.22979348 36.15136609 36.15136609 0 0 0 71.43161492 7.54968288l0.58074481-0.58074485 4.79114491-4.28299317 5.66226215-3.84743454a62.64784924 62.64784924 0 0 1 15.68011059-5.80744837c6.3881932-1.7422345 13.35713124-2.32297937 22.06830378-2.32297935s16.84160026 0.58074483 23.8105383 2.32297935c6.3881932 1.16148968 11.61489672 3.48446902 15.68011061 6.3881932 4.06521387 2.90372418 6.96893804 6.3881932 9.2919174 11.03415191s3.48446902 11.61489672 3.484469 19.16457961v5.22670354l-55.17075948 5.2267035-15.82529681 1.96001384c-10.30822085 1.52445519-19.96310377 3.48446902-28.89205561 6.1704139a121.08529844 121.08529844 0 0 0-37.16766954 16.84160024 79.4894495 79.4894495 0 0 0-24.97202797 30.19873151 103.80813955 103.80813955 0 0 0-9.29191738 44.71735242c0 13.35713124 2.32297937 25.55277281 6.38819319 37.16766955 4.06521387 11.0341519 10.45340706 21.48755896 18.58383475 29.61798669 8.13042771 8.13042771 18.00308994 15.09936575 29.61798669 19.16457959 11.61489672 4.64595868 24.97202797 6.96893804 40.07139374 6.96893804 18.00308994 0 34.84469019-4.06521387 50.52480079-11.61489674 9.87266223-5.22670352 19.74532445-11.0341519 29.03724181-18.00308993v11.03415189l0.58074485 6.243007c2.90372418 16.18826233 17.20456578 28.60168322 34.26394535 28.60168321 19.16457962 0 34.84469019-15.68011059 34.84469021-34.84469021V441.72987477l-0.36296554-11.1793381a124.78754678 124.78754678 0 0 0-7.76746217-37.60322818 77.81980812 77.81980812 0 0 0-24.97202798-32.52171087 91.32212555 91.32212555 0 0 0-38.90990405-16.84160025 234.18535539 234.18535539 0 0 0-51.68629047-4.64595869zM212.91640911 224.53130585a36.29655229 36.29655229 0 0 0-36.00617985 34.26394537v360.06179873c0 19.74532445 16.26085543 36.00617988 36.00617985 36.00617987a36.15136609 36.15136609 0 0 0 36.00617988-36.00617987v-360.06179873a36.29655229 36.29655229 0 0 0-36.00617988-34.26394537z m263.65815586 278.7575216v47.04033178h-0.58074485l-6.96893805 5.44448282-6.96893801 5.00892423a124.27939505 124.27939505 0 0 1-33.1024557 17.42234508 44.4995731 44.4995731 0 0 1-14.51862091 2.32297937c-12.19564158 0-20.90681412-2.32297937-27.29500733-6.96893805-5.80744837-4.06521387-8.13042771-12.77638642-8.13042773-24.39128313 0-6.96893804 1.16148968-13.35713124 4.06521387-18.00308993a38.47434544 38.47434544 0 0 1 11.61489674-12.19564158 68.31011142 68.31011142 0 0 1 20.90681411-8.13042772c8.71117255-2.32297937 19.16457962-3.48446902 30.77947634-4.64595869l30.19873152-2.90372418z" p-id="10711" fill="#ffffff"></path></svg>