<?xml version="1.0" standalone="no"?><!DOCTYPE svg PUBLIC "-//W3C//DTD SVG 1.1//EN" "http://www.w3.org/Graphics/SVG/1.1/DTD/svg11.dtd"><svg t="1740389578052" class="icon" viewBox="0 0 1024 1024" version="1.1" xmlns="http://www.w3.org/2000/svg" p-id="2806" xmlns:xlink="http://www.w3.org/1999/xlink" width="200" height="200"><path d="M230.4 867.84c-56.32-40.96-89.6-92.16-104.96-153.6-15.36 20.48-30.72 40.96-46.08 56.32-7.68 7.68-25.6 15.36-35.84 12.8-7.68-2.56-15.36-20.48-17.92-33.28-12.8-102.4 25.6-186.88 97.28-258.56 20.48-20.48 35.84-35.84 35.84-71.68 0-30.72 15.36-58.88 25.6-89.6 2.56-10.24 7.68-17.92 7.68-28.16C217.6 130.56 360.96-28.16 588.8 5.12c92.16 12.8 171.52 43.52 227.84 120.32 38.4 53.76 53.76 112.64 66.56 176.64 2.56 15.36 7.68 33.28 15.36 48.64 15.36 30.72 23.04 64 12.8 97.28-2.56 7.68 2.56 23.04 7.68 30.72 38.4 58.88 71.68 120.32 79.36 192 2.56 33.28-2.56 66.56-10.24 97.28-2.56 10.24-15.36 23.04-25.6 25.6-7.68 2.56-20.48-10.24-28.16-20.48-10.24-12.8-17.92-28.16-25.6-43.52-23.04 43.52-48.64 87.04-71.68 130.56 15.36 10.24 35.84 20.48 56.32 33.28 43.52 30.72 40.96 69.12-7.68 94.72-51.2 25.6-107.52 30.72-163.84 23.04-46.08-5.12-92.16-17.92-135.68-28.16-35.84-10.24-66.56-12.8-102.4 7.68-64 38.4-135.68 33.28-204.8 25.6-30.72-2.56-58.88-10.24-89.6-20.48-33.28-12.8-46.08-33.28-46.08-58.88 2.56-38.4 17.92-56.32 56.32-64C207.36 872.96 215.04 870.4 230.4 867.84z" p-id="2807" fill="#ffffff"></path></svg>